<svg id="icon--telegram.svg" xmlns="http://www.w3.org/2000/svg" width="41" height="41" viewBox="0 0 41 41">
  <defs>
    <style>
      .cls-1 {
        fill: none;
      }

      .cls-2 {
        fill: #fff;
        fill-rule: evenodd;
      }
    </style>
  </defs>
  <rect id="box" class="cls-1" width="41" height="41"/>
  <path id="icon" class="cls-2" d="M225.532,88.187l14.893-6.105c1.47-.636,6.456-2.671,6.456-2.671s2.3-.89,2.109,1.272c-0.064.89-.575,4.007-1.087,7.377l-1.6,9.985a1.977,1.977,0,0,1-1.214,1.717c-1.087.255-2.876-.89-3.2-1.145-0.256-.191-4.794-3.053-6.456-4.452a1.2,1.2,0,0,1,.064-2.035c2.3-2.1,5.05-4.706,6.712-6.36,0.767-.763,1.534-2.544-1.662-0.382l-9.013,6.042a3.772,3.772,0,0,1-2.94.064c-1.918-.572-4.155-1.335-4.155-1.335s-1.534-.954,1.087-1.972h0Z" transform="translate(-218 -68)"/>
</svg>
