<svg xmlns="http://www.w3.org/2000/svg" width="18" height="18" viewBox="0 0 18 18">
  <defs>
    <style>
      .cls-1 {
        fill-rule: evenodd;
      }
    </style>
  </defs>
  <path id="icon--viber--invert.svg" class="cls-1" d="M453,99h-8a5,5,0,0,1-5-5V86a5,5,0,0,1,5-5h8a5,5,0,0,1,5,5v8A5,5,0,0,1,453,99Zm2.68-12.542,0-.019a4.84,4.84,0,0,0-3.258-3.14l-0.014,0a18.091,18.091,0,0,0-6.817,0l-0.018,0a4.84,4.84,0,0,0-3.258,3.14l0,0.019a13.4,13.4,0,0,0,0,5.755l0,0.019a4.879,4.879,0,0,0,3.081,3.094v1.528a0.611,0.611,0,0,0,1.054.423l1.545-1.607c0.334,0.019.668,0.028,1.007,0.028a18,18,0,0,0,3.411-.325l0.014,0a4.823,4.823,0,0,0,3.258-3.14l0-.019A13.437,13.437,0,0,0,455.68,86.458Zm-1.221,5.477a3.658,3.658,0,0,1-2.3,2.206,16.991,16.991,0,0,1-3.624.293,0.093,0.093,0,0,0-.065.028l-1.128,1.157-1.2,1.231a0.14,0.14,0,0,1-.241-0.1V94.225a0.081,0.081,0,0,0-.069-0.084h0a3.658,3.658,0,0,1-2.3-2.206,12.138,12.138,0,0,1,0-5.2,3.658,3.658,0,0,1,2.3-2.206,16.861,16.861,0,0,1,6.329,0,3.658,3.658,0,0,1,2.3,2.206A12.138,12.138,0,0,1,454.459,91.935ZM450.988,93.1a3.342,3.342,0,0,1-.4-0.125,9.139,9.139,0,0,1-3.434-2.295,8.883,8.883,0,0,1-1.314-2.011c-0.167-.344-0.31-0.7-0.454-1.054a0.917,0.917,0,0,1,.269-0.9,2.078,2.078,0,0,1,.7-0.529,0.45,0.45,0,0,1,.566.135,7.14,7.14,0,0,1,.877,1.231,0.583,0.583,0,0,1-.162.794c-0.065.047-.125,0.1-0.19,0.149a0.615,0.615,0,0,0-.144.149,0.413,0.413,0,0,0-.028.362,3.283,3.283,0,0,0,1.838,2.039,0.965,0.965,0,0,0,.473.116,1.324,1.324,0,0,0,.585-0.516,0.549,0.549,0,0,1,.663-0.028c0.214,0.135.418,0.279,0.622,0.427s0.4,0.283.585,0.446a0.466,0.466,0,0,1,.139.576,1.967,1.967,0,0,1-.835.924,2.076,2.076,0,0,1-.362.112C450.849,93.059,451.113,93.064,450.988,93.1ZM449,85.738a3.442,3.442,0,0,1,3.383,2.852c0.051,0.288.07,0.576,0.093,0.869a0.208,0.208,0,0,1-.19.242,0.217,0.217,0,0,1-.205-0.232c-0.018-.242-0.027-0.483-0.064-0.725a3.031,3.031,0,0,0-2.437-2.532c-0.19-.032-0.38-0.042-0.575-0.065a0.278,0.278,0,0,1-.307-0.172,0.205,0.205,0,0,1,.2-0.232A0.678,0.678,0,0,1,449,85.738Zm2.571,3.344a0.878,0.878,0,0,1-.019.116,0.192,0.192,0,0,1-.362.019,0.488,0.488,0,0,1-.018-0.163,2.053,2.053,0,0,0-.26-1.031,1.906,1.906,0,0,0-.8-0.752,2.319,2.319,0,0,0-.64-0.2c-0.1-.014-0.195-0.028-0.293-0.037A0.189,0.189,0,0,1,449,86.83a0.185,0.185,0,0,1,.2-0.181,2.687,2.687,0,0,1,1.109.288,2.247,2.247,0,0,1,1.221,1.746c0,0.037.014,0.07,0.018,0.107,0.01,0.088.014,0.177,0.019,0.293C451.568,89.106,451.563,88.967,451.568,89.083Zm-1.053-.042a0.2,0.2,0,0,1-.232-0.2,1.831,1.831,0,0,0-.042-0.269,0.76,0.76,0,0,0-.283-0.441,0.748,0.748,0,0,0-.228-0.111c-0.1-.028-0.213-0.023-0.315-0.046a0.194,0.194,0,0,1-.158-0.223,0.2,0.2,0,0,1,.213-0.163,1.161,1.161,0,0,1,1.193,1.161,0.632,0.632,0,0,1,0,.163,0.16,0.16,0,0,1-.148.135C450.375,89.046,450.58,89.036,450.515,89.041Z" transform="translate(-440 -81)"/>
</svg>
