<svg id="icon--viber.svg" xmlns="http://www.w3.org/2000/svg" width="41" height="41" viewBox="0 0 41 41">
  <defs>
    <style>
      .cls-1 {
        fill: none;
      }

      .cls-2 {
        fill: #fff;
        fill-rule: evenodd;
      }
    </style>
  </defs>
  <rect id="box" class="cls-1" width="41" height="41"/>
  <path id="icon" class="cls-2" d="M320.383,81.744l-0.009-.036a9.334,9.334,0,0,0-6.283-6.056l-0.027-.009a34.892,34.892,0,0,0-13.148,0l-0.036.009a9.334,9.334,0,0,0-6.283,6.056l-0.009.036a25.781,25.781,0,0,0,0,11.1L294.6,92.88a9.4,9.4,0,0,0,5.943,5.967V101.8a1.179,1.179,0,0,0,2.032.815l2.98-3.1c0.645,0.036,1.289.054,1.942,0.054a34.738,34.738,0,0,0,6.579-.627l0.027-.009a9.3,9.3,0,0,0,6.283-6.056l0.009-.036A25.881,25.881,0,0,0,320.383,81.744Zm-2.354,10.563a7.058,7.058,0,0,1-4.439,4.255,32.8,32.8,0,0,1-6.991.564,0.177,0.177,0,0,0-.125.054L304.3,99.412l-2.318,2.374a0.27,0.27,0,0,1-.465-0.189V96.724a0.157,0.157,0,0,0-.135-0.161h0a7.056,7.056,0,0,1-4.439-4.255,23.417,23.417,0,0,1,0-10.034,7.056,7.056,0,0,1,4.439-4.256,32.536,32.536,0,0,1,12.209,0,7.058,7.058,0,0,1,4.439,4.256A23.417,23.417,0,0,1,318.029,92.307Zm-6.695,2.249a6.514,6.514,0,0,1-.77-0.242,17.643,17.643,0,0,1-6.623-4.426,17.13,17.13,0,0,1-2.533-3.879c-0.322-.663-0.6-1.344-0.877-2.034a1.767,1.767,0,0,1,.519-1.738,4,4,0,0,1,1.361-1.021,0.87,0.87,0,0,1,1.092.26,13.929,13.929,0,0,1,1.691,2.374,1.126,1.126,0,0,1-.313,1.532c-0.125.09-.242,0.188-0.367,0.287a1.222,1.222,0,0,0-.278.287,0.8,0.8,0,0,0-.053.7,6.329,6.329,0,0,0,3.544,3.933,1.865,1.865,0,0,0,.913.224c0.555-.063.734-0.672,1.128-0.994a1.06,1.06,0,0,1,1.28-.054c0.411,0.26.805,0.537,1.2,0.824s0.77,0.547,1.128.86a0.9,0.9,0,0,1,.268,1.111,3.8,3.8,0,0,1-1.611,1.783,3.974,3.974,0,0,1-.7.215C311.066,94.475,311.576,94.484,311.334,94.556Zm-3.84-14.2a6.64,6.64,0,0,1,6.525,5.5c0.1,0.555.135,1.111,0.179,1.675a0.4,0.4,0,0,1-.367.466,0.417,0.417,0,0,1-.394-0.448c-0.035-.466-0.053-0.932-0.125-1.4a5.841,5.841,0,0,0-4.7-4.883c-0.367-.063-0.734-0.081-1.11-0.125a0.534,0.534,0,0,1-.59-0.331,0.4,0.4,0,0,1,.393-0.448A1.322,1.322,0,0,1,307.494,80.356Zm4.959,6.451a1.572,1.572,0,0,1-.036.224,0.37,0.37,0,0,1-.7.036,0.909,0.909,0,0,1-.036-0.314,3.959,3.959,0,0,0-.5-1.989,3.671,3.671,0,0,0-1.548-1.451,4.494,4.494,0,0,0-1.236-.376c-0.188-.027-0.376-0.054-0.563-0.072a0.367,0.367,0,0,1-.341-0.4,0.357,0.357,0,0,1,.394-0.349,5.188,5.188,0,0,1,2.139.556,4.332,4.332,0,0,1,2.354,3.369c0.009,0.072.027,0.134,0.036,0.206,0.018,0.17.027,0.341,0.036,0.564C312.453,86.851,312.444,86.582,312.453,86.806Zm-2.032-.081a0.4,0.4,0,0,1-.447-0.394,3.29,3.29,0,0,0-.081-0.52,1.454,1.454,0,0,0-.546-0.851,1.422,1.422,0,0,0-.438-0.215c-0.2-.054-0.412-0.045-0.609-0.09a0.375,0.375,0,0,1-.3-0.43,0.383,0.383,0,0,1,.411-0.313,2.239,2.239,0,0,1,2.3,2.24,1.219,1.219,0,0,1,0,.314,0.31,0.31,0,0,1-.287.26C310.153,86.735,310.547,86.717,310.421,86.726Z" transform="translate(-287 -68)"/>
</svg>
