<svg xmlns="http://www.w3.org/2000/svg" width="18" height="18" viewBox="0 0 18 18">
  <defs>
    <style>
      .cls-1 {
        fill: #fff;
        fill-rule: evenodd;
      }
    </style>
  </defs>
  <path id="icon--telegram--invert.svg" class="cls-1" d="M415,99h-8a5,5,0,0,1-5-5V86a5,5,0,0,1,5-5h8a5,5,0,0,1,5,5v8A5,5,0,0,1,415,99Zm-10.265-9.63,7.149-2.931c0.706-.305,3.1-1.282,3.1-1.282s1.1-.427,1.012.61c-0.03.427-.276,1.923-0.521,3.541L414.707,94.1a0.951,0.951,0,0,1-.583.824,2.529,2.529,0,0,1-1.534-.549c-0.123-.092-2.3-1.465-3.1-2.137a0.577,0.577,0,0,1,.03-0.977c1.1-1.007,2.424-2.259,3.222-3.053,0.368-.366.736-1.221-0.8-0.183l-4.326,2.9a1.811,1.811,0,0,1-1.411.031c-0.921-.275-1.994-0.641-1.994-0.641s-0.737-.458.521-0.946h0Z" transform="translate(-402 -81)"/>
</svg>
