<svg xmlns="http://www.w3.org/2000/svg" width="18" height="18" viewBox="0 0 18 18">
  <defs>
    <style>
      .cls-1 {
        fill: #fff;
        fill-rule: evenodd;
      }
    </style>
  </defs>
  <path id="icon--instagram.svg" class="cls-1" d="M235,54h-8a5,5,0,0,1-5-5V41a5,5,0,0,1,5-5h8a5,5,0,0,1,5,5v8A5,5,0,0,1,235,54Zm3-12a3.982,3.982,0,0,0-.335-1.595A1.471,1.471,0,0,1,236.5,41a1.5,1.5,0,0,1-1.5-1.5,1.473,1.473,0,0,1,.595-1.165A3.984,3.984,0,0,0,234,38h-6a4,4,0,0,0-4,4v6a4,4,0,0,0,4,4h6a4,4,0,0,0,4-4V42Zm-7,8a5,5,0,1,1,5-5A5,5,0,0,1,231,50Zm0-8a3,3,0,1,0,3,3A3,3,0,0,0,231,42Z" transform="translate(-222 -36)"/>
</svg>
