<svg xmlns="http://www.w3.org/2000/svg" width="18" height="18" viewBox="0 0 18 18">
  <defs>
    <style>
      .cls-1 {
        fill: #fff;
        fill-rule: evenodd;
      }
    </style>
  </defs>
  <path id="icon--facebook.svg" class="cls-1" d="M282,54h-8a5,5,0,0,1-5-5V41a5,5,0,0,1,5-5h8a5,5,0,0,1,5,5v8A5,5,0,0,1,282,54Zm3-12a4,4,0,0,0-4-4h-6a4,4,0,0,0-4,4v6a4,4,0,0,0,4,4h2V48.2h-2.2v-3H277V44.031a3.692,3.692,0,0,1,3.375-3.831H282.8v3h-2.425a0.734,0.734,0,0,0-.575.8v1.2h3v3h-3V52H281a4,4,0,0,0,4-4V42Z" transform="translate(-269 -36)"/>
</svg>
