<svg id="logo.svg" xmlns="http://www.w3.org/2000/svg" width="139.437" height="34.031" viewBox="0 0 139.437 34.031">
  <defs>
    <style>
      .cls-1 {
        fill: #ffedd6;
      }

      .cls-1, .cls-2, .cls-4, .cls-5, .cls-6, .cls-7, .cls-8 {
        fill-rule: evenodd;
      }

      .cls-2 {
        fill: #fed384;
        stroke: #5f282e;
        stroke-linejoin: round;
        stroke-width: 1px;
      }

      .cls-3 {
        fill: #ffe2bd;
      }

      .cls-4 {
        fill: #f55a7f;
      }

      .cls-5 {
        fill: #fbb000;
        opacity: 0.3;
      }

      .cls-6 {
        fill: #5f282e;
      }

      .cls-7 {
        fill: #622a39;
      }

      .cls-8 {
        fill: #60292f;
      }
    </style>
  </defs>
  <path id="Мама_Рада" data-name="Мама Рада" class="cls-1" d="M64.655,44a2.527,2.527,0,0,1-.234-1.25,4.7,4.7,0,0,1,.84-2.861,4.613,4.613,0,0,1,2.334-1.641l-5.078,13.74h1.6l3.34-9.023-0.4,9.023H69.8l3.76-8.984-1.279,8.984h2.881l2.1-14.717H74.382l-4.4,10.537,0.459-10.537a4.878,4.878,0,0,0-1.709-.283,5.593,5.593,0,0,0-2.095.469A7.4,7.4,0,0,0,64.6,38.69a4.837,4.837,0,0,0-2.041,3.623q0,1.816,2.139,1.816A0.259,0.259,0,0,0,64.655,44h0Zm23.32,4.4q-0.557,1.885-1.621,1.885a0.743,0.743,0,0,1-.82-0.859,2.594,2.594,0,0,1,.088-0.645l1.436-6.8H84.177l-0.215,1.065V42.909a0.878,0.878,0,0,0-.381-0.727,2.084,2.084,0,0,0-1.24-.288,3.888,3.888,0,0,0-2.8,1.123,7.389,7.389,0,0,0-1.787,2.842A9.156,9.156,0,0,0,77.194,49a4.07,4.07,0,0,0,.225,1.4,2.345,2.345,0,0,0,2.368,1.709,3.733,3.733,0,0,0,3.052-1.836A1.8,1.8,0,0,0,84.8,52.108q2.744,0,4.014-3.7h-0.84Zm-5.156,0a2.53,2.53,0,0,1-.674,1.294,1.524,1.524,0,0,1-1.084.474,0.728,0.728,0,0,1-.537-0.215,1.67,1.67,0,0,1-.371-1.24A7.33,7.33,0,0,1,80.2,47.85a7.421,7.421,0,0,1,1.592-4.121,1.48,1.48,0,0,1,1.084-.6,0.781,0.781,0,0,1,.728.288,1,1,0,0,1,.171.474Zm20.616,0a5.732,5.732,0,0,1-.713,1.3,1.16,1.16,0,0,1-.967.469,0.726,0.726,0,0,1-.8-0.84,6.507,6.507,0,0,1,.19-1.1q0.19-.835,1.353-6.245H99.538l-3.721,7.676L95.4,41.991h-2.8L91.54,46.952q-0.166.772-.308,1.5a8.456,8.456,0,0,1-.352,1.3,2.709,2.709,0,0,1-.537.923,1.1,1.1,0,0,1-.84.352,0.713,0.713,0,0,1-.669-0.268,0.843,0.843,0,0,1-.137-0.493,0.661,0.661,0,0,0,.557-0.19,0.936,0.936,0,0,0,.244-0.713,1.043,1.043,0,0,0-.288-0.772,1.1,1.1,0,0,0-.815-0.288,1.051,1.051,0,0,0-.855.4,1.869,1.869,0,0,0-.327,1.2,2.318,2.318,0,0,0,.566,1.494,1.989,1.989,0,0,0,1.631.7,2.261,2.261,0,0,0,2.119-1.289,6.7,6.7,0,0,0,.557-1.548q0.225-.923.469-2.124l0.264-1.26,0.352,6.1h2.8l2.959-6.084L98.62,47.333a13.6,13.6,0,0,0-.42,2.7,2.045,2.045,0,0,0,.6,1.475,2.38,2.38,0,0,0,1.758.605q2.46,0,3.72-3.7h-0.839Zm10.517,0q-0.556,1.885-1.621,1.885a0.743,0.743,0,0,1-.82-0.859,2.575,2.575,0,0,1,.088-0.645l1.435-6.8h-2.881l-0.215,1.065V42.909a0.879,0.879,0,0,0-.38-0.727,2.087,2.087,0,0,0-1.241-.288,3.886,3.886,0,0,0-2.8,1.123,7.393,7.393,0,0,0-1.788,2.842,9.3,9.3,0,0,0-.419,1.567A9.078,9.078,0,0,0,103.171,49a4.087,4.087,0,0,0,.224,1.4,2.346,2.346,0,0,0,2.369,1.709,3.731,3.731,0,0,0,3.051-1.836,1.8,1.8,0,0,0,1.963,1.836q2.745,0,4.014-3.7h-0.84Zm-5.156,0a2.535,2.535,0,0,1-.674,1.294,1.525,1.525,0,0,1-1.084.474,0.728,0.728,0,0,1-.537-0.215,1.668,1.668,0,0,1-.371-1.24,7.266,7.266,0,0,1,.049-0.869,7.425,7.425,0,0,1,1.591-4.121,1.481,1.481,0,0,1,1.084-.6,0.781,0.781,0,0,1,.728.288,1,1,0,0,1,.171.474Zm14,3.584,1.22-5.7h0.108a5.663,5.663,0,0,0,4.228-1.719,5.43,5.43,0,0,0,1.148-1.729,4.971,4.971,0,0,0,.4-1.914,3.7,3.7,0,0,0-1.2-2.8,5.079,5.079,0,0,0-3.6-1.133,8.036,8.036,0,0,0-4.678,1.6,6.645,6.645,0,0,0-1.626,1.655,3.416,3.416,0,0,0-.63,1.938,2.677,2.677,0,0,0,.137.918,1.89,1.89,0,0,0,2,1.025,0.275,0.275,0,0,0-.049-0.137,2.606,2.606,0,0,1-.225-1.221,4.667,4.667,0,0,1,1.368-3.584,5.355,5.355,0,0,1,3.808-1.279,2.679,2.679,0,0,1,1.123.215,2.386,2.386,0,0,1,1.358,2.412,5.959,5.959,0,0,1-1.016,3.34,3.331,3.331,0,0,1-2.481,1.68l1.416-6.68-2.958.391-2.715,12.725H122.8Zm17.226-3.584q-0.557,1.885-1.621,1.885a0.743,0.743,0,0,1-.82-0.859,2.575,2.575,0,0,1,.088-0.645l1.435-6.8h-2.881l-0.214,1.065V42.909a0.878,0.878,0,0,0-.381-0.727,2.085,2.085,0,0,0-1.24-.288,3.888,3.888,0,0,0-2.8,1.123,7.38,7.38,0,0,0-1.787,2.842,9.163,9.163,0,0,0-.557,3.14,4.063,4.063,0,0,0,.225,1.4,2.344,2.344,0,0,0,2.368,1.709,3.734,3.734,0,0,0,3.052-1.836,1.8,1.8,0,0,0,1.962,1.836q2.745,0,4.014-3.7h-0.84Zm-5.156,0A2.527,2.527,0,0,1,134.2,49.7a1.523,1.523,0,0,1-1.084.474,0.728,0.728,0,0,1-.537-0.215,1.672,1.672,0,0,1-.371-1.24,7.266,7.266,0,0,1,.049-0.869,7.418,7.418,0,0,1,1.592-4.121,1.479,1.479,0,0,1,1.084-.6,0.781,0.781,0,0,1,.727.288,1,1,0,0,1,.171.474Zm9.717,3.662q-3.262,1.084-3.262,2.91a1.772,1.772,0,0,0,.654,1.533,2.884,2.884,0,0,0,1.739.478,3.14,3.14,0,0,0,1.924-.625,4.344,4.344,0,0,0,1.523-2.773l0.3-1.445a5.86,5.86,0,0,0,.957-0.342,4.985,4.985,0,0,0,2.578-3.4h-0.84a5.129,5.129,0,0,1-1.02,1.938,3.6,3.6,0,0,1-1.5.923l1.982-9.277h-2.881l-0.215,1.035V42.909a0.878,0.878,0,0,0-.381-0.727,2.083,2.083,0,0,0-1.24-.288,3.888,3.888,0,0,0-2.8,1.123,7.4,7.4,0,0,0-1.787,2.842,9.308,9.308,0,0,0-.42,1.567A9.176,9.176,0,0,0,139.763,49a4.087,4.087,0,0,0,.224,1.4,2.393,2.393,0,0,0,2.442,1.709,3.234,3.234,0,0,0,2.4-1.094Zm0.742-3.457a2.283,2.283,0,0,1-.674,1.138,1.532,1.532,0,0,1-1.035.425,0.716,0.716,0,0,1-.527-0.215,1.668,1.668,0,0,1-.371-1.24,8.517,8.517,0,0,1,1.64-4.99,1.54,1.54,0,0,1,1.162-.6,0.812,0.812,0,0,1,.4.088,0.683,0.683,0,0,1,.42.654Zm-1.064,5.039a3.565,3.565,0,0,1-.518,1.343,0.855,0.855,0,0,1-.566.434,0.914,0.914,0,0,1-.371-0.059,0.633,0.633,0,0,1-.381-0.6q0-1,1.953-1.7Zm16.416-5.244q-0.556,1.885-1.621,1.885a0.743,0.743,0,0,1-.821-0.859,2.622,2.622,0,0,1,.088-0.645l1.436-6.8h-2.881l-0.215,1.065V42.909a0.878,0.878,0,0,0-.381-0.727,2.083,2.083,0,0,0-1.24-.288,3.888,3.888,0,0,0-2.8,1.123,7.391,7.391,0,0,0-1.787,2.842A9.163,9.163,0,0,0,149.9,49a4.063,4.063,0,0,0,.225,1.4,2.345,2.345,0,0,0,2.368,1.709,3.734,3.734,0,0,0,3.052-1.836,1.8,1.8,0,0,0,1.963,1.836q2.744,0,4.013-3.7h-0.839Zm-5.157,0a2.526,2.526,0,0,1-.673,1.294,1.525,1.525,0,0,1-1.084.474,0.731,0.731,0,0,1-.538-0.215,1.672,1.672,0,0,1-.371-1.24,8.548,8.548,0,0,1,1.641-4.99,1.481,1.481,0,0,1,1.084-.6,0.782,0.782,0,0,1,.728.288,1.007,1.007,0,0,1,.17.474Z" transform="translate(-22.094 -24.969)"/>
  <path id="Эллипс_8" data-name="Эллипс 8" class="cls-2" d="M53.1,29.543c-1.031,1.691-4.841,3.268-5.826,2.667s-1.294-4.765-.264-6.456A4.515,4.515,0,0,1,53.1,29.543Zm-30.22,6.138c1.612,1.126,5.7,1.04,6.361.1s-0.724-4.849-2.336-5.975A4.483,4.483,0,0,0,22.881,35.681Z" transform="translate(-22.094 -24.969)"/>
  <circle id="Эллипс_1" data-name="Эллипс 1" class="cls-3" cx="18.406" cy="19.531" r="14"/>
  <path id="Эллипс_7" data-name="Эллипс 7" class="cls-4" d="M34.381,50.11A1.291,1.291,0,1,1,33.09,51.4,1.291,1.291,0,0,1,34.381,50.11ZM47.59,48.174a1.281,1.281,0,1,1-1.281,1.281A1.281,1.281,0,0,1,47.59,48.174Z" transform="translate(-22.094 -24.969)"/>
  <path id="Эллипс_1_копия_3" data-name="Эллипс 1 копия 3" class="cls-5" d="M40.5,30A14.5,14.5,0,0,1,54.687,41.506a14.493,14.493,0,0,1-18.831-7.3A14.5,14.5,0,0,1,26.2,46.827,14.411,14.411,0,0,1,40.5,30Z" transform="translate(-22.094 -24.969)"/>
  <path id="Эллипс_1_копия_2" data-name="Эллипс 1 копия 2" class="cls-6" d="M36.06,30.7a12.5,12.5,0,0,0,18.37,9.807,14.421,14.421,0,0,1,.42,2.015A14.439,14.439,0,0,1,36.1,36.993a14.514,14.514,0,0,1-9.7,10.868,14.4,14.4,0,0,1-.339-2,12.479,12.479,0,0,0,8.052-14.368A14.382,14.382,0,0,1,36.06,30.7Z" transform="translate(-22.094 -24.969)"/>
  <path id="Эллипс_6" data-name="Эллипс 6" class="cls-6" d="M40.8,55.327a7.028,7.028,0,0,1-5.224-1.93l1.226-1.268a5.338,5.338,0,0,0,3.913,1.395A5.154,5.154,0,0,0,45.085,50.9l1.576,0.759A6.865,6.865,0,0,1,40.8,55.327Z" transform="translate(-22.094 -24.969)"/>
  <path id="Эллипс_5" data-name="Эллипс 5" class="cls-7" d="M47.9,47.62a1.26,1.26,0,0,0-1.241-1.158A1.274,1.274,0,0,0,45.4,47.743a1.209,1.209,0,0,0,.027.136l-1.714.179a2.97,2.97,0,1,1,5.907-.616ZM36.275,48.833a1.268,1.268,0,0,0-2.534.073,1.21,1.21,0,0,0,.038.187l-1.711.178a2.957,2.957,0,0,1-.037-0.364,2.984,2.984,0,0,1,5.957-.253Z" transform="translate(-22.094 -24.969)"/>
  <path id="Эллипс_1_копия_4" data-name="Эллипс 1 копия 4" class="cls-8" d="M40.5,59A14.5,14.5,0,1,1,55,44.5,14.5,14.5,0,0,1,40.5,59Zm0-28A13.5,13.5,0,1,0,54,44.5,13.5,13.5,0,0,0,40.5,31Z" transform="translate(-22.094 -24.969)"/>
</svg>
