<svg id="img--footer-logo.svg" xmlns="http://www.w3.org/2000/svg" width="138.937" height="33.53" viewBox="0 0 138.937 33.53">
  <defs>
    <style>
      .cls-1 {
        fill: #fefbf4;
        fill-rule: evenodd;
      }
    </style>
  </defs>
  <path id="Мама_Рада" data-name="Мама Рада" class="cls-1" d="M64.655,4653a2.507,2.507,0,0,1-.234-1.25,4.705,4.705,0,0,1,.84-2.86,4.61,4.61,0,0,1,2.334-1.64l-5.078,13.74h1.6l3.34-9.02-0.4,9.02H69.8l3.76-8.98-1.279,8.98h2.881l2.1-14.72H74.382l-4.4,10.54,0.459-10.54a5.088,5.088,0,0,0-1.709-.28,5.646,5.646,0,0,0-2.095.47,7.289,7.289,0,0,0-2.036,1.23,4.832,4.832,0,0,0-2.041,3.62c0,1.21.713,1.82,2.139,1.82a0.281,0.281,0,0,0-.039-0.13h0Zm23.32,4.41c-0.371,1.25-.912,1.88-1.621,1.88a0.741,0.741,0,0,1-.82-0.86,2.583,2.583,0,0,1,.088-0.64l1.436-6.8H84.177l-0.215,1.07v-0.15a0.883,0.883,0,0,0-.381-0.73,2.1,2.1,0,0,0-1.24-.29,3.888,3.888,0,0,0-2.8,1.13,7.36,7.36,0,0,0-1.787,2.84,9.185,9.185,0,0,0-.557,3.14,4.079,4.079,0,0,0,.225,1.4,2.345,2.345,0,0,0,2.368,1.71,3.724,3.724,0,0,0,3.052-1.84,1.8,1.8,0,0,0,1.963,1.84c1.829,0,3.167-1.24,4.014-3.7h-0.84Zm-5.156,0a2.522,2.522,0,0,1-.674,1.29,1.5,1.5,0,0,1-1.084.47,0.737,0.737,0,0,1-.537-0.21,1.667,1.667,0,0,1-.371-1.24,7.253,7.253,0,0,1,.049-0.87,7.427,7.427,0,0,1,1.592-4.12,1.476,1.476,0,0,1,1.084-.6,0.786,0.786,0,0,1,.728.29,0.99,0.99,0,0,1,.171.48Zm20.616,0a5.834,5.834,0,0,1-.713,1.3,1.159,1.159,0,0,1-.967.46,0.726,0.726,0,0,1-.8-0.84,6.445,6.445,0,0,1,.19-1.09q0.19-.84,1.353-6.25H99.538l-3.721,7.68-0.42-7.68h-2.8l-1.055,4.96c-0.111.52-.213,1.02-0.308,1.51a8.638,8.638,0,0,1-.352,1.3,2.664,2.664,0,0,1-.537.92,1.076,1.076,0,0,1-.84.35,0.731,0.731,0,0,1-.669-0.26,0.865,0.865,0,0,1-.137-0.5,0.658,0.658,0,0,0,.557-0.19,0.928,0.928,0,0,0,.244-0.71,1.04,1.04,0,0,0-.288-0.77,1.112,1.112,0,0,0-.815-0.29,1.042,1.042,0,0,0-.855.4,1.878,1.878,0,0,0-.327,1.2,2.356,2.356,0,0,0,.566,1.5,2.013,2.013,0,0,0,1.631.7,2.261,2.261,0,0,0,2.119-1.29,6.7,6.7,0,0,0,.557-1.55c0.15-.61.306-1.32,0.469-2.12l0.264-1.26,0.352,6.1h2.8l2.959-6.08-0.312,1.42a13.722,13.722,0,0,0-.42,2.7,2.039,2.039,0,0,0,.6,1.47,2.357,2.357,0,0,0,1.758.61c1.64,0,2.881-1.24,3.72-3.7h-0.839Zm10.517,0c-0.371,1.25-.911,1.88-1.621,1.88a0.74,0.74,0,0,1-.82-0.86,2.564,2.564,0,0,1,.088-0.64l1.435-6.8h-2.881l-0.215,1.07v-0.15a0.885,0.885,0,0,0-.38-0.73,2.1,2.1,0,0,0-1.241-.29,3.887,3.887,0,0,0-2.8,1.13,7.35,7.35,0,0,0-1.787,2.84,9.071,9.071,0,0,0-.42,1.57,8.965,8.965,0,0,0-.137,1.57,4.1,4.1,0,0,0,.224,1.4,2.346,2.346,0,0,0,2.369,1.71,3.722,3.722,0,0,0,3.051-1.84,1.8,1.8,0,0,0,1.963,1.84c1.83,0,3.168-1.24,4.014-3.7h-0.84Zm-5.156,0a2.526,2.526,0,0,1-.674,1.29,1.5,1.5,0,0,1-1.084.47,0.737,0.737,0,0,1-.537-0.21,1.664,1.664,0,0,1-.371-1.24,7.19,7.19,0,0,1,.049-0.87,7.431,7.431,0,0,1,1.591-4.12,1.477,1.477,0,0,1,1.084-.6,0.786,0.786,0,0,1,.728.29,0.99,0.99,0,0,1,.171.48Zm14,3.58,1.22-5.7h0.108a5.649,5.649,0,0,0,4.228-1.72,5.369,5.369,0,0,0,1.148-1.73,4.989,4.989,0,0,0,.4-1.91,3.71,3.71,0,0,0-1.2-2.81,5.1,5.1,0,0,0-3.6-1.13,8.018,8.018,0,0,0-4.678,1.6,6.658,6.658,0,0,0-1.626,1.66,3.417,3.417,0,0,0-.63,1.94,2.619,2.619,0,0,0,.137.91,1.884,1.884,0,0,0,2,1.03,0.309,0.309,0,0,0-.049-0.14,2.6,2.6,0,0,1-.225-1.22,4.663,4.663,0,0,1,1.368-3.58,5.368,5.368,0,0,1,3.808-1.28,2.732,2.732,0,0,1,1.123.21,2.4,2.4,0,0,1,1.358,2.42,5.981,5.981,0,0,1-1.016,3.34,3.379,3.379,0,0,1-2.481,1.68l1.416-6.68-2.958.39-2.715,12.72H122.8Zm17.226-3.58c-0.371,1.25-.911,1.88-1.621,1.88a0.74,0.74,0,0,1-.82-0.86,2.564,2.564,0,0,1,.088-0.64l1.435-6.8h-2.881l-0.214,1.07v-0.15a0.883,0.883,0,0,0-.381-0.73,2.1,2.1,0,0,0-1.24-.29,3.889,3.889,0,0,0-2.8,1.13,7.35,7.35,0,0,0-1.787,2.84,9.192,9.192,0,0,0-.557,3.14,4.071,4.071,0,0,0,.225,1.4,2.344,2.344,0,0,0,2.368,1.71,3.725,3.725,0,0,0,3.052-1.84,1.8,1.8,0,0,0,1.962,1.84c1.83,0,3.168-1.24,4.014-3.7h-0.84Zm-5.156,0a2.519,2.519,0,0,1-.674,1.29,1.5,1.5,0,0,1-1.084.47,0.737,0.737,0,0,1-.537-0.21,1.669,1.669,0,0,1-.371-1.24,7.19,7.19,0,0,1,.049-0.87,7.424,7.424,0,0,1,1.592-4.12,1.475,1.475,0,0,1,1.084-.6,0.786,0.786,0,0,1,.727.29,0.99,0.99,0,0,1,.171.48Zm9.717,3.66q-3.262,1.08-3.262,2.91a1.771,1.771,0,0,0,.654,1.53,2.876,2.876,0,0,0,1.739.48,3.178,3.178,0,0,0,1.924-.62,4.352,4.352,0,0,0,1.523-2.78l0.3-1.44a6.008,6.008,0,0,0,.957-0.34,4.993,4.993,0,0,0,2.578-3.4h-0.84a5.182,5.182,0,0,1-1.02,1.94,3.615,3.615,0,0,1-1.5.92l1.982-9.28h-2.881l-0.215,1.04v-0.12a0.883,0.883,0,0,0-.381-0.73,2.1,2.1,0,0,0-1.24-.29,3.889,3.889,0,0,0-2.8,1.13,7.373,7.373,0,0,0-1.787,2.84,9.161,9.161,0,0,0-.42,1.57,9.062,9.062,0,0,0-.136,1.57,4.1,4.1,0,0,0,.224,1.4,2.393,2.393,0,0,0,2.442,1.71,3.238,3.238,0,0,0,2.4-1.1Zm0.742-3.46a2.256,2.256,0,0,1-.674,1.14,1.541,1.541,0,0,1-1.035.42,0.725,0.725,0,0,1-.527-0.21,1.664,1.664,0,0,1-.371-1.24,8.513,8.513,0,0,1,1.64-4.99,1.536,1.536,0,0,1,1.162-.6,0.8,0.8,0,0,1,.4.09,0.694,0.694,0,0,1,.42.66Zm-1.064,5.04a3.519,3.519,0,0,1-.518,1.34,0.867,0.867,0,0,1-.566.44,0.9,0.9,0,0,1-.371-0.06,0.636,0.636,0,0,1-.381-0.6c0-.66.651-1.23,1.953-1.69Zm16.416-5.24c-0.371,1.25-.912,1.88-1.621,1.88a0.741,0.741,0,0,1-.821-0.86,2.612,2.612,0,0,1,.088-0.64l1.436-6.8h-2.881l-0.215,1.07v-0.15a0.883,0.883,0,0,0-.381-0.73,2.1,2.1,0,0,0-1.24-.29,3.889,3.889,0,0,0-2.8,1.13,7.362,7.362,0,0,0-1.787,2.84,9.192,9.192,0,0,0-.557,3.14,4.071,4.071,0,0,0,.225,1.4,2.345,2.345,0,0,0,2.368,1.71,3.725,3.725,0,0,0,3.052-1.84,1.8,1.8,0,0,0,1.963,1.84c1.829,0,3.167-1.24,4.013-3.7h-0.839Zm-5.157,0a2.518,2.518,0,0,1-.673,1.29,1.5,1.5,0,0,1-1.084.47,0.741,0.741,0,0,1-.538-0.21,1.669,1.669,0,0,1-.371-1.24,8.544,8.544,0,0,1,1.641-4.99,1.477,1.477,0,0,1,1.084-.6,0.784,0.784,0,0,1,.727.29,0.99,0.99,0,0,1,.171.48ZM48.31,4641.3a14.491,14.491,0,1,1-21.9,15.56h0c-0.067-.28-0.126-0.57-0.177-0.86-0.03-.16-0.051-0.33-0.075-0.49A14.62,14.62,0,0,1,26,4653.5a14.339,14.339,0,0,1,2.686-8.34c-1.344.55-4.449,0.47-5.8-.48a4.479,4.479,0,0,1,4.025-5.87,7.926,7.926,0,0,1,2.488,5.39,14.647,14.647,0,0,1,4.727-3.71h0a14.363,14.363,0,0,1,12.639-.05c-0.54-1.44-.57-4.34.25-5.69a4.521,4.521,0,0,1,6.089,3.79C52.3,4639.86,49.838,4641.09,48.31,4641.3Zm-21.739-1.23a2.8,2.8,0,0,0-2.509,3.67c1,0.7,3.556.64,3.965,0.06S27.575,4640.78,26.571,4640.07Zm7.714,1.45A13.5,13.5,0,0,0,27,4653.5c0,0.33.026,0.64,0.049,0.96A12.354,12.354,0,0,0,34.285,4641.52Zm-6.942,14.96A13.494,13.494,0,0,0,54,4653.5a13.705,13.705,0,0,0-.1-1.58,14.277,14.277,0,0,1-5.4,1.08,14.468,14.468,0,0,1-12.4-7.01A14.462,14.462,0,0,1,27.343,4656.48ZM40.5,4640a13.558,13.558,0,0,0-4.3.71A12.494,12.494,0,0,0,48.5,4651a12.323,12.323,0,0,0,5.008-1.07A13.493,13.493,0,0,0,40.5,4640Zm7.364-4.26c-0.708,1.16-.5,4.02.181,4.44s3.294-.67,4-1.84A3.1,3.1,0,0,0,47.864,4635.74Zm-12.849,20.88a1.284,1.284,0,0,0-1.274,1.29,1.189,1.189,0,0,0,.038.18l-1.711.18a2.977,2.977,0,1,1,5.92-.62l-1.712.18A1.273,1.273,0,0,0,35.016,4656.62Zm-0.635,2.49a1.29,1.29,0,1,1-1.291,1.29A1.292,1.292,0,0,1,34.381,4659.11Zm6.338,3.41a5.136,5.136,0,0,0,4.365-2.62l1.576,0.76a6.888,6.888,0,0,1-5.858,3.67,7.055,7.055,0,0,1-5.224-1.93l1.226-1.27A5.313,5.313,0,0,0,40.719,4662.52Zm6.871-5.35a1.285,1.285,0,1,1-1.281,1.29A1.287,1.287,0,0,1,47.59,4657.17Zm-0.926-1.71a1.277,1.277,0,0,0-1.266,1.28,1.354,1.354,0,0,0,.027.14l-1.714.18a3.15,3.15,0,0,1-.032-0.32,2.976,2.976,0,0,1,5.938-.3l-1.713.18A1.259,1.259,0,0,0,46.664,4655.46Z" transform="translate(-22.594 -4634.47)"/>
</svg>
